<?xml version="1.0" encoding="UTF-8" standalone="no"?><!DOCTYPE svg PUBLIC "-//W3C//DTD SVG 1.1//EN" "http://www.w3.org/Graphics/SVG/1.1/DTD/svg11.dtd"><svg width="100%" height="100%" viewBox="0 0 2346 2346" version="1.1" xmlns="http://www.w3.org/2000/svg" xmlns:xlink="http://www.w3.org/1999/xlink" xml:space="preserve" xmlns:serif="http://www.serif.com/" style="fill-rule:evenodd;clip-rule:evenodd;stroke-linejoin:round;stroke-miterlimit:2;"><rect x="0" y="0" width="2345.82" height="2345.82" style="fill:#ac8a0b;"/><rect x="147.09" y="114.71" width="557.926" height="557.926" style="fill:#f2af0d;"/><rect x="919.989" y="115.479" width="557.926" height="557.926" style="fill:#0dcaf2;"/><rect x="897.753" y="860.71" width="557.926" height="557.926" style="fill:#e61a1a;"/><rect x="1677.26" y="113.532" width="557.926" height="557.926" style="fill:#50d926;"/><rect x="1663.63" y="860.302" width="557.926" height="557.926" style="fill:#fff;"/><rect x="893.859" y="1606.71" width="557.926" height="557.926" style="fill:#911ae6;"/><rect x="1651.13" y="1605.53" width="557.926" height="557.926" style="fill:#dae61a;"/><rect x="147.498" y="859.941" width="557.926" height="557.926" style="fill:#fff;"/><rect x="148.676" y="1607.12" width="557.926" height="557.926" style="fill:#e61aaa;"/><path d="M2178.31,434.622c-111.455,83.127 -306.979,136.193 -444.557,250.493c-137.577,114.3 -358.92,178.003 -501.722,302.695c-142.802,124.691 -129.088,351.296 -263.183,476.932c-134.094,125.635 -251.645,240.408 -352.651,344.317c404.764,157.214 942.161,153.873 1603.91,0l0,198.373l-2095.01,0l172.449,-132.742c107.973,-119.024 54.815,-261.641 185.426,-387.277c130.612,-125.636 289.196,-167.758 425.032,-288.67c135.836,-120.913 246.311,-319.2 382.147,-432.556c135.836,-113.356 266.448,-218.21 391.835,-314.562l-1250.28,0l-228.242,-198.372c879.985,152.898 1487.21,117.687 1974.85,0l0,181.369Z" style="fill-opacity:0.39;fill-rule:nonzero;"/></svg>